# xmcd CD database file
#
# Track frame offsets:
#	150
#	18120
#	47431
#	70239
#	86382
#	100400
#	115547
#	139790
#	157741
#	171143
#	190743
#	206049
#	220978
#	240647
#	258962
#	274824
#
# Disc length: 3909 seconds
#
# Revision: 1
# Processed by: cddbd v1.5.2PL0 Copyright (c) Steve Scherf et al.
# Submitted via: CDex 1.70beta2
#
DISCID=d10f4310
DTITLE=Kevin Dean and Heiner Franz - Two Caballeros CD 1
DYEAR=2007
DGENRE=Jazz
TTITLE0=Sweet Brown Round
TTITLE1=Body And Soul
TTITLE2=Caballero
TTITLE3=Gouache
TTITLE4=Little Folk Song Dance
TTITLE5=The Hall Monitor
TTITLE6=Melancholy Memoir
TTITLE7=Paragraffiti
TTITLE8=Hombre
TTITLE9=Out Of Nowhere
TTITLE10=Walking In The Afternoon
TTITLE11=I've Found A New Baby
TTITLE12=Lullabye Of The Leaves
TTITLE13=Almost A Cowboy
TTITLE14=Whistler's Brother
TTITLE15=Wobido #2
EXTD=YEAR: 2007
EXTT0=
EXTT1=
EXTT2=
EXTT3=
EXTT4=
EXTT5=
EXTT6=
EXTT7=
EXTT8=
EXTT9=
EXTT10=
EXTT11=
EXTT12=
EXTT13=
EXTT14=
EXTT15=
PLAYORDER=
